<svg width="34" height="34" viewBox="0 0 34 34" fill="none" xmlns="http://www.w3.org/2000/svg">
<path d="M31.167 22.6667H28.0787C28.2436 22.2124 28.3298 21.7333 28.3337 21.25V14.1667C28.3337 13.0395 27.8859 11.9585 27.0889 11.1615C26.2918 10.3645 25.2108 9.91671 24.0837 9.91671H15.5837C14.4565 9.91671 13.3755 10.3645 12.5785 11.1615C11.7814 11.9585 11.3337 13.0395 11.3337 14.1667V21.25C11.3375 21.7333 11.4237 22.2124 11.5887 22.6667H9.91699C9.54127 22.6667 9.18093 22.5175 8.91526 22.2518C8.64958 21.9861 8.50033 21.6258 8.50033 21.25V7.08337C8.50033 5.9562 8.05256 4.8752 7.25553 4.07817C6.4585 3.28114 5.3775 2.83337 4.25033 2.83337H2.83366C2.45794 2.83337 2.0976 2.98263 1.83192 3.24831C1.56625 3.51398 1.41699 3.87432 1.41699 4.25004C1.41699 4.62576 1.56625 4.9861 1.83192 5.25178C2.0976 5.51745 2.45794 5.66671 2.83366 5.66671H4.25033C4.62605 5.66671 4.98638 5.81596 5.25206 6.08164C5.51774 6.34732 5.66699 6.70765 5.66699 7.08337V21.25C5.67222 22.1806 5.98274 23.0838 6.55088 23.8208C7.11903 24.5579 7.91338 25.0881 8.81199 25.33C8.55109 25.9683 8.44941 26.6605 8.51572 27.3468C8.58203 28.0332 8.81434 28.6931 9.19261 29.2696C9.57088 29.8461 10.0837 30.3219 10.687 30.656C11.2902 30.9901 11.9656 31.1724 12.655 31.1871C13.3444 31.2019 14.027 31.0487 14.6439 30.7408C15.2609 30.4329 15.7937 29.9795 16.1963 29.4197C16.5989 28.8599 16.8593 28.2105 16.9549 27.5277C17.0506 26.8448 16.9786 26.1489 16.7453 25.5H21.5053C21.2723 26.142 21.1975 26.8306 21.2871 27.5076C21.3767 28.1846 21.6281 28.8301 22.02 29.3893C22.412 29.9485 22.9329 30.4051 23.5387 30.7203C24.1446 31.0355 24.8174 31.2 25.5003 31.2C26.1832 31.2 26.8561 31.0355 27.4619 30.7203C28.0677 30.4051 28.5887 29.9485 28.9806 29.3893C29.3726 28.8301 29.624 28.1846 29.7136 27.5076C29.8032 26.8306 29.7283 26.142 29.4953 25.5H31.167C31.5427 25.5 31.9031 25.3508 32.1687 25.0851C32.4344 24.8194 32.5837 24.4591 32.5837 24.0834C32.5837 23.7077 32.4344 23.3473 32.1687 23.0816C31.9031 22.816 31.5427 22.6667 31.167 22.6667ZM12.7503 28.3334C12.4701 28.3334 12.1962 28.2503 11.9633 28.0946C11.7303 27.939 11.5487 27.7177 11.4415 27.4588C11.3343 27.2 11.3062 26.9151 11.3609 26.6403C11.4155 26.3655 11.5505 26.1131 11.7486 25.915C11.9467 25.7168 12.1991 25.5819 12.4739 25.5273C12.7488 25.4726 13.0336 25.5007 13.2925 25.6079C13.5513 25.7151 13.7726 25.8967 13.9282 26.1296C14.0839 26.3626 14.167 26.6365 14.167 26.9167C14.167 27.2924 14.0177 27.6528 13.7521 27.9184C13.4864 28.1841 13.126 28.3334 12.7503 28.3334ZM15.5837 22.6667C15.2079 22.6667 14.8476 22.5175 14.5819 22.2518C14.3162 21.9861 14.167 21.6258 14.167 21.25V14.1667C14.167 13.791 14.3162 13.4306 14.5819 13.165C14.8476 12.8993 15.2079 12.75 15.5837 12.75H24.0837C24.4594 12.75 24.8197 12.8993 25.0854 13.165C25.3511 13.4306 25.5003 13.791 25.5003 14.1667V21.25C25.5003 21.6258 25.3511 21.9861 25.0854 22.2518C24.8197 22.5175 24.4594 22.6667 24.0837 22.6667H15.5837ZM25.5003 28.3334C25.2201 28.3334 24.9462 28.2503 24.7133 28.0946C24.4803 27.939 24.2987 27.7177 24.1915 27.4588C24.0843 27.2 24.0562 26.9151 24.1109 26.6403C24.1655 26.3655 24.3005 26.1131 24.4986 25.915C24.6967 25.7168 24.9491 25.5819 25.2239 25.5273C25.4988 25.4726 25.7836 25.5007 26.0425 25.6079C26.3013 25.7151 26.5226 25.8967 26.6782 26.1296C26.8339 26.3626 26.917 26.6365 26.917 26.9167C26.917 27.2924 26.7677 27.6528 26.5021 27.9184C26.2364 28.1841 25.876 28.3334 25.5003 28.3334Z" fill="white"/>
</svg>
