<svg width="40" height="40" viewBox="0 0 40 40" fill="none" xmlns="http://www.w3.org/2000/svg">
<path d="M25.4831 17.1501L20.8497 21.7834C20.5723 21.7096 20.2868 21.6705 19.9997 21.6667C19.1157 21.6667 18.2678 22.0179 17.6427 22.6431C17.0176 23.2682 16.6664 24.116 16.6664 25.0001C16.6701 25.2871 16.7093 25.5726 16.7831 25.8501L15.4831 27.1501C15.3268 27.305 15.2029 27.4894 15.1182 27.6925C15.0336 27.8956 14.9901 28.1134 14.9901 28.3334C14.9901 28.5534 15.0336 28.7713 15.1182 28.9744C15.2029 29.1775 15.3268 29.3618 15.4831 29.5167C15.638 29.673 15.8223 29.797 16.0254 29.8816C16.2285 29.9662 16.4464 30.0097 16.6664 30.0097C16.8864 30.0097 17.1043 29.9662 17.3074 29.8816C17.5105 29.797 17.6948 29.673 17.8497 29.5167L19.1497 28.2167C19.4272 28.2905 19.7127 28.3297 19.9997 28.3334C20.8838 28.3334 21.7316 27.9822 22.3567 27.3571C22.9819 26.732 23.3331 25.8841 23.3331 25.0001C23.3293 24.713 23.2902 24.4275 23.2164 24.1501L27.8497 19.5167C28.1636 19.2029 28.3399 18.7773 28.3399 18.3334C28.3399 17.8896 28.1636 17.4639 27.8497 17.1501C27.5359 16.8362 27.1102 16.6599 26.6664 16.6599C26.2226 16.6599 25.7969 16.8362 25.4831 17.1501V17.1501ZM19.9997 6.66675C17.811 6.66675 15.6438 7.09784 13.6217 7.93542C11.5996 8.773 9.76226 10.0007 8.21461 11.5483C5.08901 14.6739 3.33306 18.9131 3.33306 23.3334C3.32485 26.6344 4.30593 29.8621 6.14973 32.6001C6.39726 32.967 6.7804 33.2205 7.21486 33.3049C7.64932 33.3893 8.09951 33.2976 8.46639 33.0501C8.83327 32.8025 9.0868 32.4194 9.17119 31.9849C9.25558 31.5505 9.16393 31.1003 8.91639 30.7334C7.57392 28.726 6.80186 26.3916 6.68265 23.9796C6.56344 21.5676 7.10155 19.1685 8.23953 17.0385C9.37752 14.9084 11.0726 13.1275 13.1439 11.8857C15.2151 10.644 17.5848 9.9881 19.9997 9.9881C22.4147 9.9881 24.7843 10.644 26.8556 11.8857C28.9268 13.1275 30.6219 14.9084 31.7599 17.0385C32.8979 19.1685 33.436 21.5676 33.3168 23.9796C33.1976 26.3916 32.4255 28.726 31.0831 30.7334C30.9602 30.915 30.8744 31.119 30.8305 31.3338C30.7867 31.5486 30.7856 31.7699 30.8274 31.9851C30.8692 32.2003 30.9531 32.4051 31.0741 32.5879C31.1952 32.7706 31.3512 32.9277 31.5331 33.0501C31.809 33.2355 32.134 33.3342 32.4664 33.3334C32.7394 33.3338 33.0083 33.2672 33.2495 33.1393C33.4907 33.0114 33.6968 32.8263 33.8497 32.6001C35.6935 29.8621 36.6746 26.6344 36.6664 23.3334C36.6664 18.9131 34.9104 14.6739 31.7848 11.5483C28.6592 8.4227 24.42 6.66675 19.9997 6.66675V6.66675Z" fill="black"/>
</svg>
