<svg width="32" height="32" viewBox="0 0 32 32" fill="none" xmlns="http://www.w3.org/2000/svg">
<path d="M24.0002 5.97338C21.8785 3.85164 19.0008 2.65967 16.0002 2.65967C12.9996 2.65967 10.122 3.85164 8.00023 5.97338C5.8785 8.09511 4.68652 10.9728 4.68652 13.9734C4.68652 16.974 5.8785 19.8516 8.00023 21.9734L15.0269 29.0134C15.1508 29.1383 15.2983 29.2375 15.4608 29.3052C15.6233 29.3729 15.7975 29.4078 15.9736 29.4078C16.1496 29.4078 16.3239 29.3729 16.4863 29.3052C16.6488 29.2375 16.7963 29.1383 16.9202 29.0134L24.0002 21.9067C26.1131 19.7938 27.3001 16.9281 27.3001 13.94C27.3001 10.952 26.1131 8.08628 24.0002 5.97338V5.97338ZM22.0936 20L16.0002 26.12L9.9069 20C8.70309 18.7951 7.88353 17.2604 7.55182 15.5898C7.22012 13.9192 7.39115 12.1877 8.0433 10.6143C8.69546 9.04086 9.79945 7.69611 11.2157 6.75001C12.632 5.80392 14.297 5.29895 16.0002 5.29895C17.7035 5.29895 19.3684 5.80392 20.7847 6.75001C22.201 7.69611 23.305 9.04086 23.9572 10.6143C24.6093 12.1877 24.7803 13.9192 24.4486 15.5898C24.1169 17.2604 23.2974 18.7951 22.0936 20V20ZM12.0002 9.88004C10.9239 10.9597 10.3194 12.4221 10.3194 13.9467C10.3194 15.4713 10.9239 16.9337 12.0002 18.0134C12.7999 18.8144 13.8183 19.3615 14.9278 19.5859C16.0372 19.8103 17.1882 19.7022 18.2363 19.2749C19.2845 18.8477 20.1831 18.1204 20.8195 17.1844C21.4559 16.2483 21.8017 15.1452 21.8136 14.0134C21.8196 13.2576 21.674 12.5084 21.3854 11.8099C21.0969 11.1114 20.6712 10.4779 20.1336 9.94671C19.6051 9.40615 18.975 8.97543 18.2795 8.67933C17.5839 8.38323 16.8367 8.22761 16.0808 8.22141C15.3248 8.21522 14.5752 8.35857 13.8749 8.64323C13.1746 8.92788 12.5375 9.34822 12.0002 9.88004V9.88004ZM18.2536 16.12C17.7483 16.633 17.0805 16.9546 16.3644 17.0297C15.6483 17.1048 14.9283 16.9289 14.3276 16.5319C13.7268 16.135 13.2826 15.5417 13.0709 14.8535C12.8592 14.1653 12.8931 13.4249 13.1668 12.7589C13.4406 12.0929 13.9372 11.5427 14.5717 11.2024C15.2062 10.862 15.9392 10.7526 16.6455 10.8929C17.3517 11.0331 17.9873 11.4144 18.4436 11.9714C18.8998 12.5284 19.1485 13.2267 19.1469 13.9467C19.1275 14.7697 18.7822 15.5514 18.1869 16.12H18.2536Z" fill="black"/>
</svg>
