<svg width="32" height="32" viewBox="0 0 32 32" fill="none" xmlns="http://www.w3.org/2000/svg">
<path d="M14.6663 2.66663C12.0293 2.66663 9.4514 3.44861 7.25874 4.9137C5.06609 6.37878 3.35712 8.46117 2.34795 10.8975C1.33878 13.3339 1.07474 16.0148 1.58921 18.6012C2.10368 21.1876 3.37356 23.5634 5.23826 25.4281C7.10296 27.2928 9.47873 28.5626 12.0651 29.0771C14.6516 29.5916 17.3324 29.3275 19.7688 28.3184C22.2051 27.3092 24.2875 25.6002 25.7526 23.4076C27.2177 21.2149 27.9997 18.637 27.9997 16C27.9997 14.249 27.6548 12.5152 26.9847 10.8975C26.3147 9.27984 25.3326 7.80998 24.0944 6.57187C22.8563 5.33375 21.3865 4.35163 19.7688 3.68157C18.1511 3.0115 16.4173 2.66663 14.6663 2.66663V2.66663ZM14.6663 26.6666C12.5567 26.6666 10.4944 26.041 8.74026 24.869C6.98614 23.6969 5.61897 22.031 4.81163 20.0819C4.0043 18.1328 3.79306 15.9881 4.20464 13.919C4.61621 11.8499 5.63211 9.94925 7.12387 8.45749C8.61563 6.96573 10.5163 5.94983 12.5854 5.53825C14.6545 5.12667 16.7992 5.33791 18.7483 6.14524C20.6974 6.95258 22.3633 8.31975 23.5354 10.0739C24.7074 11.828 25.333 13.8903 25.333 16C25.333 18.8289 24.2092 21.542 22.2088 23.5424C20.2084 25.5428 17.4953 26.6666 14.6663 26.6666V26.6666ZM14.6663 7.99996C14.3127 7.99996 13.9736 8.14044 13.7235 8.39048C13.4735 8.64053 13.333 8.97967 13.333 9.33329V15.2266L10.533 16.84C10.2762 16.9855 10.0749 17.2122 9.96072 17.4845C9.84657 17.7567 9.82601 18.0592 9.90227 18.3444C9.97853 18.6296 10.1473 18.8814 10.3821 19.0604C10.6169 19.2394 10.9045 19.3354 11.1997 19.3333C11.4332 19.3349 11.6631 19.2751 11.8663 19.16L15.333 17.16L15.453 17.04L15.6663 16.8666C15.7185 16.8006 15.7632 16.7291 15.7997 16.6533C15.8431 16.5817 15.8789 16.5057 15.9063 16.4266C15.9426 16.3418 15.9651 16.2518 15.973 16.16C15.973 16.16 15.9997 16 15.9997 16V9.33329C15.9997 8.97967 15.8592 8.64053 15.6092 8.39048C15.3591 8.14044 15.02 7.99996 14.6663 7.99996Z" fill="black"/>
</svg>
