<svg width="34" height="34" viewBox="0 0 34 34" fill="none" xmlns="http://www.w3.org/2000/svg">
<path d="M16.9997 15.5833C16.624 15.5833 16.2636 15.7325 15.9979 15.9982C15.7323 16.2639 15.583 16.6242 15.583 16.9999V22.6666C15.583 23.0423 15.7323 23.4026 15.9979 23.6683C16.2636 23.934 16.624 24.0833 16.9997 24.0833C17.3754 24.0833 17.7357 23.934 18.0014 23.6683C18.2671 23.4026 18.4163 23.0423 18.4163 22.6666V16.9999C18.4163 16.6242 18.2671 16.2639 18.0014 15.9982C17.7357 15.7325 17.3754 15.5833 16.9997 15.5833ZM17.538 10.0299C17.1931 9.88823 16.8063 9.88823 16.4613 10.0299C16.2875 10.0973 16.1286 10.1984 15.9938 10.3274C15.8687 10.4651 15.7681 10.6232 15.6963 10.7949C15.617 10.963 15.5782 11.1474 15.583 11.3333C15.5819 11.5197 15.6177 11.7045 15.6882 11.8771C15.7587 12.0497 15.8625 12.2067 15.9938 12.3391C16.1315 12.4642 16.2897 12.5648 16.4613 12.6366C16.676 12.7248 16.909 12.7589 17.1399 12.7359C17.3707 12.713 17.5925 12.6336 17.7855 12.5049C17.9786 12.3762 18.1371 12.2021 18.2471 11.9978C18.3571 11.7935 18.4152 11.5653 18.4163 11.3333C18.4111 10.9582 18.2644 10.5989 18.0055 10.3274C17.8708 10.1984 17.7119 10.0973 17.538 10.0299ZM16.9997 2.83325C14.1978 2.83325 11.4588 3.66411 9.1291 5.22077C6.79941 6.77742 4.98363 8.98995 3.91139 11.5786C2.83915 14.1672 2.5586 17.0156 3.10522 19.7637C3.65185 22.5118 5.00109 25.036 6.98234 27.0173C8.96358 28.9985 11.4878 30.3478 14.2359 30.8944C16.984 31.441 19.8324 31.1605 22.421 30.0882C25.0097 29.016 27.2222 27.2002 28.7788 24.8705C30.3355 22.5408 31.1663 19.8018 31.1663 16.9999C31.1663 15.1395 30.7999 13.2973 30.088 11.5786C29.376 9.85979 28.3325 8.29807 27.017 6.98257C25.7015 5.66708 24.1398 4.62357 22.421 3.91163C20.7023 3.19968 18.8601 2.83325 16.9997 2.83325V2.83325ZM16.9997 28.3333C14.7582 28.3333 12.567 27.6686 10.7032 26.4232C8.83946 25.1779 7.38684 23.4079 6.52905 21.337C5.67125 19.2661 5.44682 16.9873 5.88411 14.7889C6.32141 12.5904 7.40081 10.571 8.9858 8.98604C10.5708 7.40105 12.5902 6.32165 14.7887 5.88435C16.9871 5.44705 19.2659 5.67149 21.3368 6.52928C23.4077 7.38708 25.1777 8.8397 26.423 10.7035C27.6683 12.5672 28.333 14.7584 28.333 16.9999C28.333 20.0057 27.139 22.8884 25.0136 25.0138C22.8881 27.1392 20.0055 28.3333 16.9997 28.3333V28.3333Z" fill="white"/>
</svg>
