<svg width="40" height="40" viewBox="0 0 40 40" fill="none" xmlns="http://www.w3.org/2000/svg">
<path d="M18.3337 15H25.0003C25.4424 15 25.8663 14.8244 26.1788 14.5118C26.4914 14.1992 26.667 13.7753 26.667 13.3333C26.667 12.8913 26.4914 12.4673 26.1788 12.1548C25.8663 11.8422 25.4424 11.6666 25.0003 11.6666H21.667V9.99996C21.667 9.55793 21.4914 9.13401 21.1788 8.82145C20.8663 8.50889 20.4424 8.33329 20.0003 8.33329C19.5583 8.33329 19.1344 8.50889 18.8218 8.82145C18.5093 9.13401 18.3337 9.55793 18.3337 9.99996V11.6666C17.0076 11.6666 15.7358 12.1934 14.7981 13.1311C13.8605 14.0688 13.3337 15.3405 13.3337 16.6666C13.3337 17.9927 13.8605 19.2645 14.7981 20.2022C15.7358 21.1398 17.0076 21.6666 18.3337 21.6666H21.667C22.109 21.6666 22.533 21.8422 22.8455 22.1548C23.1581 22.4673 23.3337 22.8913 23.3337 23.3333C23.3337 23.7753 23.1581 24.1992 22.8455 24.5118C22.533 24.8244 22.109 25 21.667 25H15.0003C14.5583 25 14.1344 25.1756 13.8218 25.4881C13.5093 25.8007 13.3337 26.2246 13.3337 26.6666C13.3337 27.1087 13.5093 27.5326 13.8218 27.8451C14.1344 28.1577 14.5583 28.3333 15.0003 28.3333H18.3337V30C18.3337 30.442 18.5093 30.8659 18.8218 31.1785C19.1344 31.491 19.5583 31.6666 20.0003 31.6666C20.4424 31.6666 20.8663 31.491 21.1788 31.1785C21.4914 30.8659 21.667 30.442 21.667 30V28.3333C22.9931 28.3333 24.2649 27.8065 25.2025 26.8688C26.1402 25.9311 26.667 24.6594 26.667 23.3333C26.667 22.0072 26.1402 20.7354 25.2025 19.7978C24.2649 18.8601 22.9931 18.3333 21.667 18.3333H18.3337C17.8916 18.3333 17.4677 18.1577 17.1552 17.8451C16.8426 17.5326 16.667 17.1087 16.667 16.6666C16.667 16.2246 16.8426 15.8007 17.1552 15.4881C17.4677 15.1756 17.8916 15 18.3337 15V15ZM20.0003 1.66663C16.3743 1.66663 12.8298 2.74186 9.81488 4.75635C6.79998 6.77084 4.45015 9.63412 3.06254 12.9841C1.67494 16.3341 1.31187 20.0203 2.01927 23.5766C2.72667 27.1329 4.47275 30.3996 7.03671 32.9636C9.60067 35.5275 12.8674 37.2736 16.4237 37.981C19.98 38.6884 23.6662 38.3254 27.0162 36.9377C30.3662 35.5501 33.2295 33.2003 35.2439 30.1854C37.2584 27.1705 38.3337 23.6259 38.3337 20C38.3337 15.1377 36.4021 10.4745 32.964 7.03634C29.5258 3.59817 24.8626 1.66663 20.0003 1.66663V1.66663ZM20.0003 35C17.0336 35 14.1335 34.1202 11.6668 32.472C9.20004 30.8238 7.27746 28.4811 6.14214 25.7402C5.00683 22.9993 4.70978 19.9833 5.28855 17.0736C5.86733 14.1639 7.29594 11.4911 9.39373 9.39336C11.4915 7.29557 14.1643 5.86696 17.074 5.28818C19.9837 4.7094 22.9997 5.00645 25.7406 6.14177C28.4815 7.27708 30.8242 9.19967 32.4724 11.6664C34.1206 14.1331 35.0003 17.0332 35.0003 20C35.0003 23.9782 33.42 27.7935 30.6069 30.6066C27.7939 33.4196 23.9786 35 20.0003 35V35Z" fill="white"/>
</svg>
