<svg width="40" height="40" viewBox="0 0 40 40" fill="none" xmlns="http://www.w3.org/2000/svg">
<path d="M16.6663 23.3333H23.333C23.775 23.3333 24.199 23.1577 24.5115 22.8452C24.8241 22.5326 24.9997 22.1087 24.9997 21.6667C24.9997 21.2246 24.8241 20.8007 24.5115 20.4882C24.199 20.1756 23.775 20 23.333 20H16.6663C16.2243 20 15.8004 20.1756 15.4878 20.4882C15.1753 20.8007 14.9997 21.2246 14.9997 21.6667C14.9997 22.1087 15.1753 22.5326 15.4878 22.8452C15.8004 23.1577 16.2243 23.3333 16.6663 23.3333V23.3333ZM31.6663 5H8.33301C7.00693 5 5.73516 5.52678 4.79747 6.46447C3.85979 7.40215 3.33301 8.67392 3.33301 10V15C3.33301 15.442 3.5086 15.866 3.82116 16.1785C4.13372 16.4911 4.55765 16.6667 4.99967 16.6667H6.66634V30C6.66634 31.3261 7.19313 32.5979 8.13081 33.5355C9.06849 34.4732 10.3403 35 11.6663 35H28.333C29.6591 35 30.9309 34.4732 31.8685 33.5355C32.8062 32.5979 33.333 31.3261 33.333 30V16.6667H34.9997C35.4417 16.6667 35.8656 16.4911 36.1782 16.1785C36.4907 15.866 36.6663 15.442 36.6663 15V10C36.6663 8.67392 36.1396 7.40215 35.2019 6.46447C34.2642 5.52678 32.9924 5 31.6663 5ZM29.9997 30C29.9997 30.442 29.8241 30.866 29.5115 31.1785C29.199 31.4911 28.775 31.6667 28.333 31.6667H11.6663C11.2243 31.6667 10.8004 31.4911 10.4878 31.1785C10.1753 30.866 9.99967 30.442 9.99967 30V16.6667H29.9997V30ZM33.333 13.3333H6.66634V10C6.66634 9.55797 6.84194 9.13405 7.1545 8.82149C7.46706 8.50893 7.89098 8.33333 8.33301 8.33333H31.6663C32.1084 8.33333 32.5323 8.50893 32.8449 8.82149C33.1574 9.13405 33.333 9.55797 33.333 10V13.3333Z" fill="black"/>
</svg>
