<svg width="40" height="40" viewBox="0 0 40 40" fill="none" xmlns="http://www.w3.org/2000/svg">
<path d="M31.667 3.33325C31.225 3.33325 30.801 3.50885 30.4885 3.82141C30.1759 4.13397 30.0003 4.55789 30.0003 4.99992V14.0999L28.3337 15.2166V4.99992C28.3337 4.55789 28.1581 4.13397 27.8455 3.82141C27.5329 3.50885 27.109 3.33325 26.667 3.33325C26.225 3.33325 25.801 3.50885 25.4885 3.82141C25.1759 4.13397 25.0003 4.55789 25.0003 4.99992V15.2166L23.3337 14.0999V4.99992C23.3337 4.55789 23.1581 4.13397 22.8455 3.82141C22.5329 3.50885 22.109 3.33325 21.667 3.33325C21.225 3.33325 20.801 3.50885 20.4885 3.82141C20.1759 4.13397 20.0003 4.55789 20.0003 4.99992V14.9999C20.0017 15.2744 20.0709 15.5443 20.2018 15.7857C20.3326 16.027 20.5211 16.2323 20.7503 16.3833L25.0003 19.2333V34.9999C25.0003 35.4419 25.1759 35.8659 25.4885 36.1784C25.801 36.491 26.225 36.6666 26.667 36.6666C27.109 36.6666 27.5329 36.491 27.8455 36.1784C28.1581 35.8659 28.3337 35.4419 28.3337 34.9999V19.2333L32.5837 16.3833C32.8129 16.2323 33.0014 16.027 33.1322 15.7857C33.263 15.5443 33.3322 15.2744 33.3337 14.9999V4.99992C33.3337 4.55789 33.1581 4.13397 32.8455 3.82141C32.5329 3.50885 32.109 3.33325 31.667 3.33325V3.33325ZM15.0003 3.33325C12.7902 3.33325 10.6706 4.21123 9.10777 5.77403C7.54497 7.33683 6.66699 9.45645 6.66699 11.6666V21.6666C6.66699 22.1086 6.84259 22.5325 7.15515 22.8451C7.46771 23.1577 7.89163 23.3333 8.33366 23.3333H13.3337V34.9999C13.3337 35.4419 13.5093 35.8659 13.8218 36.1784C14.1344 36.491 14.5583 36.6666 15.0003 36.6666C15.4424 36.6666 15.8663 36.491 16.1788 36.1784C16.4914 35.8659 16.667 35.4419 16.667 34.9999V4.99992C16.667 4.55789 16.4914 4.13397 16.1788 3.82141C15.8663 3.50885 15.4424 3.33325 15.0003 3.33325V3.33325ZM13.3337 19.9999H10.0003V11.6666C9.99978 10.6322 10.3201 9.62304 10.9171 8.77828C11.5141 7.93353 12.3584 7.29473 13.3337 6.94992V19.9999Z" fill="black"/>
</svg>
